<svg xmlns="http://www.w3.org/2000/svg" width="40" height="40" viewBox="0 0 40 40" version="1.1">
  <path
    d="M 16.158 2 C 16.158 3.375, 16.385 3.938, 16.662 3.250 C 16.940 2.563, 16.940 1.438, 16.662 0.750 C 16.385 0.062, 16.158 0.625, 16.158 2 M 19 0.885 C 19 1.498, 19.689 2, 20.531 2 C 21.374 2, 22.326 2.686, 22.648 3.526 C 23.100 4.702, 23.550 4.788, 24.617 3.903 C 25.378 3.272, 26 2.135, 26 1.378 C 26 0.620, 25.550 0, 25 0 C 24.450 0, 24.053 0.337, 24.118 0.750 C 24.184 1.163, 24.184 1.848, 24.118 2.273 C 24.053 2.698, 22.875 2.309, 21.500 1.408 C 19.974 0.408, 19 0.204, 19 0.885 M 11.543 1.931 C 11.226 2.443, 11.425 3.144, 11.984 3.490 C 12.543 3.835, 13 3.416, 13 2.559 C 13 1.702, 12.802 1, 12.559 1 C 12.316 1, 11.859 1.419, 11.543 1.931 M 27.236 2.796 C 27.540 3.955, 27.273 5.093, 26.644 5.323 C 25.802 5.632, 25.791 6.239, 26.602 7.621 C 27.208 8.655, 28.671 9.644, 29.852 9.820 C 31.033 9.995, 32 9.610, 32 8.963 C 32 8.315, 32.675 8.045, 33.500 8.362 C 34.325 8.678, 35 8.501, 35 7.969 C 35 7.436, 34.415 7, 33.700 7 C 32.985 7, 31.899 7.501, 31.287 8.113 C 30.675 8.725, 29.725 8.948, 29.175 8.608 C 28.626 8.269, 28.382 6.682, 28.634 5.083 C 28.895 3.425, 28.575 1.855, 27.889 1.431 C 27.044 0.909, 26.850 1.317, 27.236 2.796 M 16.915 5.602 C 15.946 6.771, 16.015 6.931, 17.280 6.446 C 18.140 6.116, 19.817 6.367, 21.008 7.004 C 22.198 7.641, 23.329 8.005, 23.521 7.812 C 23.713 7.620, 22.575 6.719, 20.992 5.810 C 18.494 4.377, 17.955 4.349, 16.915 5.602 M 33.733 5.124 C 34.412 5.808, 35.219 6.115, 35.526 5.807 C 35.834 5.499, 35.279 4.940, 34.293 4.564 C 32.868 4.022, 32.753 4.136, 33.733 5.124 M 3 6.500 C 3 6.775, 3.225 7, 3.500 7 C 3.775 7, 4 6.775, 4 6.500 C 4 6.225, 3.775 6, 3.500 6 C 3.225 6, 3 6.225, 3 6.500 M 12.323 7.601 C 11.985 8.481, 12.324 9.582, 13.075 10.047 C 13.827 10.511, 14.667 10.666, 14.942 10.391 C 15.217 10.116, 14.835 9.516, 14.093 9.057 C 13.351 8.599, 13.053 7.723, 13.431 7.112 C 13.809 6.500, 13.852 6, 13.528 6 C 13.203 6, 12.661 6.720, 12.323 7.601 M 36.368 7.214 C 36.100 7.646, 36.359 8, 36.941 8 C 37.523 8, 38.320 7.967, 38.711 7.926 C 39.102 7.885, 39.745 8.673, 40.141 9.676 C 40.730 11.173, 40.872 11.045, 40.930 8.964 C 40.983 7.043, 40.498 6.429, 38.927 6.429 C 37.786 6.429, 36.635 6.782, 36.368 7.214 M 6 7.833 C 6 8.292, 6.675 8.667, 7.500 8.667 C 8.325 8.667, 9 8.292, 9 7.833 C 9 7.375, 8.325 7, 7.500 7 C 6.675 7, 6 7.375, 6 7.833 M 1 9.438 C 1 10.320, 1.716 10.625, 3 10.290 C 4.640 9.861, 5.021 10.282, 5.116 12.633 C 5.184 14.322, 5.420 14.781, 5.689 13.750 C 5.941 12.787, 6.564 12, 7.073 12 C 7.583 12, 8.007 12.787, 8.015 13.750 C 8.028 15.246, 8.172 15.282, 9 14 C 9.786 12.783, 9.972 12.918, 9.985 14.715 C 9.993 15.933, 10.948 17.437, 12.107 18.057 C 13.631 18.873, 14.517 18.883, 15.307 18.093 C 15.908 17.492, 16.746 17, 17.169 17 C 17.591 17, 17.678 17.675, 17.362 18.500 C 17.045 19.325, 17.284 20, 17.893 20 C 18.502 20, 19 19.619, 19 19.153 C 19 18.687, 20.012 17.773, 21.250 17.122 C 22.488 16.471, 22.741 16.152, 21.813 16.413 C 20.885 16.675, 18.311 16.175, 16.091 15.304 C 13.872 14.432, 12.338 13.262, 12.682 12.705 C 13.046 12.117, 12.810 11.999, 12.122 12.425 C 11.469 12.828, 9.486 12.310, 7.717 11.272 C 5.948 10.235, 3.712 9.088, 2.750 8.724 C 1.611 8.294, 1 8.543, 1 9.438 M 17.756 8.664 C 18.447 8.943, 18.715 9.652, 18.352 10.240 C 17.958 10.877, 18.164 11.017, 18.862 10.585 C 19.506 10.187, 19.774 9.443, 19.457 8.931 C 19.141 8.419, 18.346 8.036, 17.691 8.079 C 16.839 8.135, 16.857 8.302, 17.756 8.664 M 23 10 C 23.825 10.533, 24.864 10.976, 25.309 10.985 C 25.754 10.993, 25.840 10.550, 25.500 10 C 25.160 9.450, 24.121 9.007, 23.191 9.015 C 21.734 9.029, 21.707 9.165, 23 10 M 34 10.500 C 34 10.775, 34.225 11, 34.500 11 C 34.775 11, 35 10.775, 35 10.500 C 35 10.225, 34.775 10, 34.500 10 C 34.225 10, 34 10.225, 34 10.500 M 3.079 12.583 C 3.127 13.748, 3.364 13.985, 3.683 13.188 C 3.972 12.466, 3.936 11.603, 3.604 11.271 C 3.272 10.939, 3.036 11.529, 3.079 12.583 M 21 11.500 C 21 11.775, 21.225 12, 21.500 12 C 21.775 12, 22 11.775, 22 11.500 C 22 11.225, 21.775 11, 21.500 11 C 21.225 11, 21 11.225, 21 11.500 M 32 11.500 C 32 11.775, 32.225 12, 32.500 12 C 32.775 12, 33 11.775, 33 11.500 C 33 11.225, 32.775 11, 32.500 11 C 32.225 11, 32 11.225, 32 11.500 M 18.333 12.667 C 18.700 13.033, 19.300 13.033, 19.667 12.667 C 20.033 12.300, 19.733 12, 19 12 C 18.267 12, 17.967 12.300, 18.333 12.667 M 30 12.500 C 30 12.775, 30.225 13, 30.500 13 C 30.775 13, 31 12.775, 31 12.500 C 31 12.225, 30.775 12, 30.500 12 C 30.225 12, 30 12.225, 30 12.500 M 22 13.893 C 22 14.384, 22.652 15.036, 23.449 15.342 C 24.418 15.714, 24.714 15.418, 24.342 14.449 C 24.036 13.652, 23.384 13, 22.893 13 C 22.402 13, 22 13.402, 22 13.893 M 26.507 13.989 C 26.157 14.555, 26.558 14.723, 27.448 14.382 C 28.302 14.054, 29 13.609, 29 13.393 C 29 13.177, 28.577 13, 28.059 13 C 27.541 13, 26.843 13.445, 26.507 13.989"
    stroke="none" fill="#456b3a" fill-rule="evenodd" />
  <path
    d="M 0 15 C 0 15.550, 0.450 16, 1 16 C 1.550 16, 2 15.550, 2 15 C 2 14.450, 1.550 14, 1 14 C 0.450 14, 0 14.450, 0 15 M 3 17.500 C 3 18.325, 3.450 19, 4 19 C 4.550 19, 5 18.325, 5 17.500 C 5 16.675, 4.550 16, 4 16 C 3.450 16, 3 16.675, 3 17.500 M 39.500 17 C 39.840 17.550, 40.316 18, 40.559 18 C 40.802 18, 41 17.550, 41 17 C 41 16.450, 40.523 16, 39.941 16 C 39.359 16, 39.160 16.450, 39.500 17 M 1 18.500 C 1 18.775, 1.225 19, 1.500 19 C 1.775 19, 2 18.775, 2 18.500 C 2 18.225, 1.775 18, 1.500 18 C 1.225 18, 1 18.225, 1 18.500 M 5.349 19.051 C 4.771 19.629, 3.421 20.168, 2.349 20.249 C 0.854 20.361, 0.400 21.140, 0.400 23.590 C 0.400 25.800, 0.801 26.630, 1.700 26.285 C 2.434 26.003, 3 26.485, 3 27.393 C 3 28.277, 2.325 29, 1.500 29 C 0.675 29, -0 29.810, -0 30.801 C -0 31.944, 1.642 33.399, 4.500 34.788 C 6.975 35.990, 9 36.755, 9 36.487 C 9 36.219, 7.990 34.990, 6.756 33.756 C 5.521 32.521, 3.946 31.641, 3.256 31.799 C 2.565 31.958, 2 31.666, 2 31.151 C 2 30.636, 2.600 29.984, 3.334 29.702 C 4.068 29.421, 5.481 30.272, 6.474 31.595 C 7.467 32.918, 8.715 34, 9.247 34 C 9.779 34, 9.955 33.325, 9.638 32.500 C 9.322 31.675, 9.472 31, 9.972 31 C 10.473 31, 11.160 31.450, 11.500 32 C 11.840 32.550, 12.541 33, 13.059 33 C 13.577 33, 14 32.067, 14 30.927 C 14 29.508, 13.459 28.957, 12.289 29.183 C 11.347 29.364, 9.482 28.497, 8.143 27.256 C 6.804 26.015, 5.147 25, 4.461 25 C 3.775 25, 2.931 24.261, 2.584 23.359 C 2.057 21.986, 2.204 21.924, 3.477 22.981 C 4.315 23.676, 5.007 23.852, 5.015 23.372 C 5.024 22.893, 5.474 23.175, 6.015 24 C 6.870 25.303, 7.122 25.310, 7.931 24.052 C 8.680 22.889, 9.104 23.134, 10.092 25.302 C 10.779 26.809, 12.133 28, 13.161 28 C 14.172 28, 15 27.465, 15 26.811 C 15 26.158, 15.959 26.652, 17.130 27.910 C 18.716 29.612, 19.459 29.875, 20.038 28.939 C 20.465 28.247, 20.583 27.078, 20.300 26.341 C 20.018 25.603, 19.358 25, 18.834 25 C 18.310 25, 18.215 25.539, 18.622 26.197 C 19.028 26.855, 17.968 26.401, 16.265 25.188 C 14.562 23.976, 11.745 22.699, 10.004 22.351 C 7.548 21.860, 6.949 21.303, 7.327 19.859 C 7.594 18.837, 7.495 18, 7.106 18 C 6.718 18, 5.927 18.473, 5.349 19.051 M 33 21.059 C 33 21.641, 33.450 21.840, 34 21.500 C 34.550 21.160, 35 20.684, 35 20.441 C 35 20.198, 34.550 20, 34 20 C 33.450 20, 33 20.477, 33 21.059 M 16 23 C 16 23.733, 16.300 24.033, 16.667 23.667 C 17.033 23.300, 17.033 22.700, 16.667 22.333 C 16.300 21.967, 16 22.267, 16 23 M 24 22.500 C 24 22.775, 24.225 23, 24.500 23 C 24.775 23, 25 22.775, 25 22.500 C 25 22.225, 24.775 22, 24.500 22 C 24.225 22, 24 22.225, 24 22.500 M 29.405 23.155 C 28.962 23.870, 29.130 24.038, 29.845 23.595 C 30.480 23.203, 31 22.684, 31 22.441 C 31 22.198, 30.802 22, 30.559 22 C 30.316 22, 29.797 22.520, 29.405 23.155 M 35.500 24 C 35.160 24.550, 35.359 25, 35.941 25 C 36.523 25, 37 24.550, 37 24 C 37 23.450, 36.802 23, 36.559 23 C 36.316 23, 35.840 23.450, 35.500 24 M 11 25 C 11 25.550, 11.477 26, 12.059 26 C 12.641 26, 12.840 25.550, 12.500 25 C 12.160 24.450, 11.684 24, 11.441 24 C 11.198 24, 11 24.450, 11 25 M 23.333 27.667 C 23.700 28.033, 24.300 28.033, 24.667 27.667 C 25.033 27.300, 24.733 27, 24 27 C 23.267 27, 22.967 27.300, 23.333 27.667 M 32 28 C 32 28.733, 32.300 29.033, 32.667 28.667 C 33.033 28.300, 33.033 27.700, 32.667 27.333 C 32.300 26.967, 32 27.267, 32 28 M 37.584 28.641 C 37.057 30.014, 37.204 30.076, 38.477 29.019 C 39.315 28.324, 40 27.585, 40 27.378 C 40 27.170, 39.598 27, 39.107 27 C 38.616 27, 37.931 27.739, 37.584 28.641 M 8 29.500 C 8 29.775, 8.225 30, 8.500 30 C 8.775 30, 9 29.775, 9 29.500 C 9 29.225, 8.775 29, 8.500 29 C 8.225 29, 8 29.225, 8 29.500 M 15 30.441 C 15 31.234, 15.431 32.148, 15.957 32.474 C 16.484 32.799, 16.821 34.361, 16.707 35.945 C 16.549 38.151, 16.202 38.578, 15.227 37.771 C 14.262 36.972, 14.107 37.115, 14.584 38.359 C 14.931 39.261, 16.291 40, 17.607 40 C 19.245 40, 20 39.432, 20 38.200 C 20 37.210, 19.511 35.911, 18.913 35.313 C 18.130 34.530, 18.130 34.038, 18.913 33.554 C 19.511 33.184, 20 32.432, 20 31.882 C 20 31.332, 19.597 31.131, 19.105 31.435 C 18.612 31.740, 17.952 31.316, 17.636 30.494 C 17.321 29.672, 16.599 29, 16.031 29 C 15.464 29, 15 29.648, 15 30.441 M 28 29.500 C 28 29.775, 28.225 30, 28.500 30 C 28.775 30, 29 29.775, 29 29.500 C 29 29.225, 28.775 29, 28.500 29 C 28.225 29, 28 29.225, 28 29.500 M 24 32.167 C 24 32.808, 24.284 33.049, 24.631 32.702 C 24.979 32.355, 26.216 32.578, 27.381 33.199 C 29.290 34.216, 29.364 34.163, 28.128 32.664 C 27.373 31.749, 26.135 31, 25.378 31 C 24.620 31, 24 31.525, 24 32.167 M 10 36.107 C 10 37.031, 10.675 38.045, 11.500 38.362 C 12.325 38.678, 13 38.538, 13 38.050 C 13 37.563, 13.236 36.548, 13.525 35.796 C 13.862 34.917, 13.327 34.429, 12.025 34.429 C 10.796 34.429, 10 35.088, 10 36.107 M 30.333 34.667 C 30.700 35.033, 31.300 35.033, 31.667 34.667 C 32.033 34.300, 31.733 34, 31 34 C 30.267 34, 29.967 34.300, 30.333 34.667 M 24 38 C 24 38.733, 24.300 39.033, 24.667 38.667 C 25.033 38.300, 25.033 37.700, 24.667 37.333 C 24.300 36.967, 24 37.267, 24 38"
    stroke="none" fill="#73533a" fill-rule="evenodd" />
  <path
    d="M 13.132 2.171 C 12.619 3.558, 12.076 3.931, 11.627 3.205 C 11.120 2.385, 9.959 2.529, 7.462 3.719 C 5.558 4.627, 4 5.764, 4 6.244 C 4 6.725, 3.581 6.859, 3.069 6.543 C 2.557 6.226, 1.884 6.379, 1.573 6.881 C 1.263 7.384, 3.276 8.981, 6.048 10.430 C 8.819 11.879, 11.587 12.755, 12.198 12.378 C 12.816 11.996, 13.031 12.141, 12.682 12.705 C 12.338 13.262, 13.923 14.452, 16.205 15.348 C 20.307 16.960, 20.427 16.943, 26.927 13.871 C 30.542 12.162, 34.610 10.341, 35.966 9.824 C 37.968 9.062, 38.156 8.711, 36.966 7.958 C 36.160 7.448, 35.950 7.017, 36.500 7.001 C 37.050 6.984, 36.542 6.415, 35.372 5.735 C 34.201 5.056, 32.289 3.922, 31.122 3.215 C 29.393 2.168, 28.986 2.168, 28.923 3.215 C 28.881 3.922, 28.696 5.286, 28.513 6.246 C 28.329 7.206, 28.627 8.270, 29.176 8.609 C 29.725 8.948, 30.675 8.725, 31.287 8.113 C 31.899 7.501, 32.985 7, 33.700 7 C 34.415 7, 35 7.436, 35 7.969 C 35 8.501, 34.325 8.678, 33.500 8.362 C 32.675 8.045, 32 8.315, 32 8.963 C 32 9.610, 31.033 9.995, 29.852 9.820 C 28.671 9.644, 27.208 8.655, 26.602 7.621 C 25.791 6.239, 25.802 5.632, 26.644 5.323 C 27.273 5.093, 27.553 4.007, 27.267 2.911 C 26.757 0.961, 26.713 0.965, 25.231 3.081 C 23.888 4.998, 23.613 5.059, 22.808 3.622 C 22.309 2.730, 21.248 2, 20.450 2 C 19.653 2, 19 1.550, 19 1 C 19 0.450, 18.581 0, 18.070 0 C 17.558 0, 16.944 1.012, 16.706 2.250 L 16.272 4.500 16.136 2.250 C 16.061 1.012, 15.535 -0, 14.968 -0 C 14.400 -0, 13.574 0.977, 13.132 2.171 M 21.548 1.411 C 22.609 2.188, 23.828 2.606, 24.255 2.342 C 24.683 2.078, 24.774 1.443, 24.457 0.931 C 24.141 0.419, 22.923 -0, 21.750 -0 C 19.669 -0, 19.664 0.034, 21.548 1.411 M 16.915 5.602 C 15.946 6.771, 16.015 6.931, 17.280 6.446 C 18.140 6.116, 19.817 6.367, 21.008 7.004 C 22.198 7.641, 23.329 8.005, 23.521 7.812 C 23.713 7.620, 22.575 6.719, 20.992 5.810 C 18.494 4.377, 17.955 4.349, 16.915 5.602 M 12.323 7.601 C 11.985 8.481, 12.324 9.582, 13.075 10.047 C 13.827 10.511, 14.667 10.666, 14.942 10.391 C 15.217 10.116, 14.835 9.516, 14.093 9.057 C 13.351 8.599, 13.053 7.723, 13.431 7.112 C 13.809 6.500, 13.852 6, 13.528 6 C 13.203 6, 12.661 6.720, 12.323 7.601 M 6 7.833 C 6 8.292, 6.675 8.667, 7.500 8.667 C 8.325 8.667, 9 8.292, 9 7.833 C 9 7.375, 8.325 7, 7.500 7 C 6.675 7, 6 7.375, 6 7.833 M 17.756 8.664 C 18.447 8.943, 18.715 9.652, 18.352 10.240 C 17.958 10.877, 18.164 11.017, 18.862 10.585 C 19.506 10.187, 19.774 9.443, 19.457 8.931 C 19.141 8.419, 18.346 8.036, 17.691 8.079 C 16.839 8.135, 16.857 8.302, 17.756 8.664 M 23 10 C 23.825 10.533, 24.864 10.976, 25.309 10.985 C 25.754 10.993, 25.840 10.550, 25.500 10 C 25.160 9.450, 24.121 9.007, 23.191 9.015 C 21.734 9.029, 21.707 9.165, 23 10 M 21 11.500 C 21 11.775, 21.225 12, 21.500 12 C 21.775 12, 22 11.775, 22 11.500 C 22 11.225, 21.775 11, 21.500 11 C 21.225 11, 21 11.225, 21 11.500 M 18.333 12.667 C 18.700 13.033, 19.300 13.033, 19.667 12.667 C 20.033 12.300, 19.733 12, 19 12 C 18.267 12, 17.967 12.300, 18.333 12.667 M 22 14 C 22 14.550, 22.450 15, 23 15 C 23.550 15, 24 14.550, 24 14 C 24 13.450, 23.550 13, 23 13 C 22.450 13, 22 13.450, 22 14"
    stroke="none" fill="#57874a" fill-rule="evenodd" />
  <path
    d="M 29.500 13.223 C 24 15.983, 19.350 18.636, 19.167 19.120 C 18.983 19.604, 18.373 20, 17.810 20 C 17.247 20, 17.045 19.325, 17.362 18.500 C 17.678 17.675, 17.591 17, 17.169 17 C 16.746 17, 15.908 17.492, 15.307 18.093 C 14.517 18.883, 13.631 18.873, 12.107 18.057 C 10.948 17.437, 9.993 15.933, 9.985 14.715 C 9.972 12.918, 9.786 12.783, 9 14 C 8.172 15.282, 8.028 15.246, 8.015 13.750 C 8.007 12.787, 7.583 12, 7.073 12 C 6.564 12, 5.941 12.787, 5.689 13.750 C 5.408 14.827, 5.187 14.442, 5.116 12.750 C 5.048 11.137, 4.430 10, 3.622 10 C 2.865 10, 1.656 10.709, 0.937 11.576 C -0.147 12.882, -0.125 13.311, 1.064 14.076 C 2.262 14.847, 2.275 15.145, 1.143 15.875 C 0.103 16.546, 0.070 16.925, 1 17.500 C 1.951 18.088, 1.951 18.412, 1 19 C 0.317 19.422, 0.192 20.001, 0.715 20.324 C 1.226 20.639, 2.900 20.246, 4.436 19.449 C 5.972 18.652, 7.360 18, 7.521 18 C 7.681 18, 7.594 18.837, 7.327 19.859 C 6.949 21.303, 7.548 21.860, 10.004 22.351 C 11.745 22.699, 14.562 23.976, 16.265 25.188 C 17.968 26.401, 19.028 26.855, 18.622 26.197 C 18.215 25.539, 18.310 25, 18.834 25 C 19.358 25, 20.018 25.603, 20.300 26.341 C 20.583 27.078, 20.465 28.247, 20.038 28.939 C 19.459 29.875, 18.716 29.612, 17.130 27.910 C 15.959 26.652, 15 26.158, 15 26.811 C 15 27.465, 14.172 28, 13.161 28 C 12.133 28, 10.779 26.809, 10.092 25.302 C 9.104 23.134, 8.680 22.889, 7.931 24.052 C 7.122 25.310, 6.870 25.303, 6.015 24 C 5.474 23.175, 5.024 22.893, 5.015 23.372 C 5.007 23.852, 4.315 23.676, 3.477 22.981 C 2.204 21.924, 2.057 21.986, 2.584 23.359 C 2.931 24.261, 3.775 25, 4.461 25 C 5.147 25, 6.804 26.015, 8.143 27.256 C 9.482 28.497, 11.347 29.364, 12.289 29.183 C 13.459 28.957, 14 29.508, 14 30.927 C 14 32.067, 13.577 33, 13.059 33 C 12.541 33, 11.840 32.550, 11.500 32 C 11.160 31.450, 10.473 31, 9.972 31 C 9.472 31, 9.322 31.675, 9.638 32.500 C 9.955 33.325, 9.779 34, 9.247 34 C 8.715 34, 7.467 32.918, 6.474 31.595 C 5.481 30.272, 4.068 29.421, 3.334 29.702 C 2.600 29.984, 2 30.636, 2 31.151 C 2 31.666, 2.591 31.955, 3.313 31.794 C 4.035 31.632, 5.835 32.803, 7.313 34.396 C 8.963 36.174, 10 36.739, 10 35.860 C 10 35.073, 10.884 34.429, 11.965 34.429 C 13.484 34.429, 13.807 34.923, 13.384 36.605 C 13.079 37.821, 13.390 39.123, 14.089 39.555 C 14.987 40.110, 15.144 39.819, 14.647 38.523 C 14.107 37.114, 14.242 36.956, 15.262 37.802 C 16.285 38.652, 16.550 38.303, 16.481 36.194 C 16.433 34.712, 16.025 32.693, 15.573 31.707 C 15.122 30.721, 15.070 29.596, 15.458 29.208 C 15.846 28.821, 16.734 29.283, 17.431 30.236 C 18.128 31.189, 18.991 31.676, 19.349 31.318 C 19.707 30.960, 20 31.102, 20 31.633 C 20 32.165, 19.511 33.089, 18.913 33.687 C 18.130 34.470, 18.130 34.962, 18.913 35.446 C 19.511 35.816, 20 36.991, 20 38.059 C 20 39.553, 20.697 40, 23.025 40 C 24.689 40, 29.189 38.419, 33.025 36.487 C 38.978 33.489, 40.021 32.574, 40.146 30.237 C 40.227 28.732, 40.362 25.475, 40.447 23 C 40.533 20.525, 40.187 17.938, 39.679 17.250 C 39.103 16.471, 39.126 16, 39.738 16 C 40.279 16, 40.593 14.384, 40.437 12.409 C 40.280 10.434, 40.005 8.680, 39.826 8.512 C 39.647 8.344, 35 10.464, 29.500 13.223 M 3.079 12.583 C 3.127 13.748, 3.364 13.985, 3.683 13.188 C 3.972 12.466, 3.936 11.603, 3.604 11.271 C 3.272 10.939, 3.036 11.529, 3.079 12.583 M -0 13 C -0 13.733, 0.300 14.033, 0.667 13.667 C 1.033 13.300, 1.033 12.700, 0.667 12.333 C 0.300 11.967, -0 12.267, -0 13 M 0 16.500 C 0 16.775, 0.225 17, 0.500 17 C 0.775 17, 1 16.775, 1 16.500 C 1 16.225, 0.775 16, 0.500 16 C 0.225 16, 0 16.225, 0 16.500 M 3 17.500 C 3 18.325, 3.450 19, 4 19 C 4.550 19, 5 18.325, 5 17.500 C 5 16.675, 4.550 16, 4 16 C 3.450 16, 3 16.675, 3 17.500 M 0 19.500 C 0 19.775, 0.225 20, 0.500 20 C 0.775 20, 1 19.775, 1 19.500 C 1 19.225, 0.775 19, 0.500 19 C 0.225 19, 0 19.225, 0 19.500 M 33 21.059 C 33 21.641, 33.450 21.840, 34 21.500 C 34.550 21.160, 35 20.684, 35 20.441 C 35 20.198, 34.550 20, 34 20 C 33.450 20, 33 20.477, 33 21.059 M 16 23 C 16 23.733, 16.300 24.033, 16.667 23.667 C 17.033 23.300, 17.033 22.700, 16.667 22.333 C 16.300 21.967, 16 22.267, 16 23 M 24 22.500 C 24 22.775, 24.225 23, 24.500 23 C 24.775 23, 25 22.775, 25 22.500 C 25 22.225, 24.775 22, 24.500 22 C 24.225 22, 24 22.225, 24 22.500 M 29.405 23.155 C 28.962 23.870, 29.130 24.038, 29.845 23.595 C 30.480 23.203, 31 22.684, 31 22.441 C 31 22.198, 30.802 22, 30.559 22 C 30.316 22, 29.797 22.520, 29.405 23.155 M 35.500 24 C 35.160 24.550, 35.359 25, 35.941 25 C 36.523 25, 37 24.550, 37 24 C 37 23.450, 36.802 23, 36.559 23 C 36.316 23, 35.840 23.450, 35.500 24 M 11 25 C 11 25.550, 11.477 26, 12.059 26 C 12.641 26, 12.840 25.550, 12.500 25 C 12.160 24.450, 11.684 24, 11.441 24 C 11.198 24, 11 24.450, 11 25 M 1 27.500 C 1 28.325, 1.450 29, 2 29 C 2.550 29, 3 28.325, 3 27.500 C 3 26.675, 2.550 26, 2 26 C 1.450 26, 1 26.675, 1 27.500 M 23.333 27.667 C 23.700 28.033, 24.300 28.033, 24.667 27.667 C 25.033 27.300, 24.733 27, 24 27 C 23.267 27, 22.967 27.300, 23.333 27.667 M 32 28 C 32 28.733, 32.300 29.033, 32.667 28.667 C 33.033 28.300, 33.033 27.700, 32.667 27.333 C 32.300 26.967, 32 27.267, 32 28 M 37.584 28.641 C 37.057 30.014, 37.204 30.076, 38.477 29.019 C 39.315 28.324, 40 27.585, 40 27.378 C 40 27.170, 39.598 27, 39.107 27 C 38.616 27, 37.931 27.739, 37.584 28.641 M 8 29.500 C 8 29.775, 8.225 30, 8.500 30 C 8.775 30, 9 29.775, 9 29.500 C 9 29.225, 8.775 29, 8.500 29 C 8.225 29, 8 29.225, 8 29.500 M 28 29.500 C 28 29.775, 28.225 30, 28.500 30 C 28.775 30, 29 29.775, 29 29.500 C 29 29.225, 28.775 29, 28.500 29 C 28.225 29, 28 29.225, 28 29.500 M 24 32.167 C 24 32.808, 24.284 33.049, 24.631 32.702 C 24.979 32.355, 26.216 32.578, 27.381 33.199 C 29.290 34.216, 29.364 34.163, 28.128 32.664 C 27.373 31.749, 26.135 31, 25.378 31 C 24.620 31, 24 31.525, 24 32.167 M 30.333 34.667 C 30.700 35.033, 31.300 35.033, 31.667 34.667 C 32.033 34.300, 31.733 34, 31 34 C 30.267 34, 29.967 34.300, 30.333 34.667 M 24 38 C 24 38.733, 24.300 39.033, 24.667 38.667 C 25.033 38.300, 25.033 37.700, 24.667 37.333 C 24.300 36.967, 24 37.267, 24 38"
    stroke="none" fill="#50462e" fill-rule="evenodd" />
</svg>
